<svg width="40" height="40" viewBox="0 0 40 40" fill="none" xmlns="http://www.w3.org/2000/svg">
<g clip-path="url(#clip0_12872_483)">
<circle cx="20" cy="20" r="19" fill="#F2F6FF" stroke="white" stroke-width="2"/>
<path d="M21.02 15.9C21.2067 15.9 21.3567 15.96 21.47 16.08C21.5833 16.1933 21.64 16.3467 21.64 16.54V22.46C21.64 22.6467 21.5867 22.7933 21.48 22.9C21.3733 23.0067 21.2333 23.06 21.06 23.06C20.8867 23.06 20.75 23.0067 20.65 22.9C20.55 22.7933 20.5 22.6467 20.5 22.46V18.34L18.8 21.56C18.72 21.7067 18.6333 21.8167 18.54 21.89C18.4467 21.9567 18.3367 21.99 18.21 21.99C18.0833 21.99 17.9733 21.9567 17.88 21.89C17.7867 21.8233 17.7 21.7133 17.62 21.56L15.91 18.39V22.46C15.91 22.64 15.8567 22.7867 15.75 22.9C15.65 23.0067 15.5133 23.06 15.34 23.06C15.1667 23.06 15.03 23.0067 14.93 22.9C14.83 22.7933 14.78 22.6467 14.78 22.46V16.54C14.78 16.3467 14.8333 16.1933 14.94 16.08C15.0533 15.96 15.2033 15.9 15.39 15.9C15.65 15.9 15.8533 16.0433 16 16.33L18.22 20.56L20.43 16.33C20.5767 16.0433 20.7733 15.9 21.02 15.9ZM23.0382 23.06C22.5249 23.08 22.2682 22.9033 22.2682 22.53C22.2682 22.37 22.3115 22.25 22.3982 22.17C22.4782 22.0833 22.6082 22.0333 22.7882 22.02L23.1082 22C23.3815 21.9867 23.5882 21.9 23.7282 21.74C23.8682 21.58 23.9382 21.3367 23.9382 21.01V16.54C23.9382 16.3467 23.9949 16.1933 24.1082 16.08C24.2282 15.96 24.3849 15.9 24.5782 15.9C24.7782 15.9 24.9349 15.96 25.0482 16.08C25.1682 16.1933 25.2282 16.3467 25.2282 16.54V21.01C25.2282 22.27 24.6049 22.9467 23.3582 23.04L23.0382 23.06Z" fill="#234CAD"/>
</g>
<defs>
<clipPath id="clip0_12872_483">
<rect width="40" height="40" fill="white"/>
</clipPath>
</defs>
</svg>
